<svg width="30" height="23" viewBox="0 0 30 23" fill="none" xmlns="http://www.w3.org/2000/svg">
<path fill-rule="evenodd" clip-rule="evenodd" d="M19.673 15.6883C18.2186 15.6883 17.02 14.3233 17.02 12.6468C17.02 10.9707 18.1954 9.60568 19.673 9.60568C21.1622 9.60568 22.3492 10.9826 22.326 12.6468C22.326 14.3233 21.1622 15.6883 19.673 15.6883ZM9.86448 15.6883C8.40979 15.6883 7.2115 14.3233 7.2115 12.6468C7.2115 10.9707 8.38654 9.60568 9.86448 9.60568C11.3537 9.60568 12.5404 10.9826 12.5171 12.6468C12.5171 14.3233 11.3421 15.6883 9.86448 15.6883ZM24.9892 1.90637C23.1079 1.02394 21.0901 0.373915 18.9807 0.00137369C18.9424 -0.00561584 18.9038 0.0122075 18.8843 0.0482035C18.6248 0.519997 18.3373 1.13542 18.1359 1.6191C15.8672 1.27207 13.6098 1.27207 11.3876 1.6191C11.1862 1.12459 10.8881 0.519997 10.6276 0.0482035C10.6077 0.0136054 10.5694 -0.00456741 10.5311 0.00137369C8.42278 0.372518 6.40501 1.02289 4.52262 1.90637C4.50621 1.91371 4.4922 1.92559 4.48297 1.94132C0.655973 7.78561 -0.392228 13.4863 0.121958 19.1163C0.124351 19.1439 0.139394 19.1705 0.160248 19.1869C2.68537 21.0825 5.13117 22.2333 7.5315 22.9959C7.56979 23.0077 7.61048 22.9934 7.63509 22.9613C8.20261 22.1687 8.70893 21.3327 9.14278 20.4538C9.16842 20.4024 9.14415 20.3412 9.09184 20.321C8.28876 20.0096 7.52432 19.6301 6.78894 19.1992C6.73082 19.1642 6.72638 19.0793 6.77971 19.0387C6.93458 18.9199 7.08911 18.7966 7.23714 18.6721C7.26381 18.6494 7.30108 18.6445 7.33253 18.6589C12.1636 20.9137 17.3937 20.9137 22.1677 18.6589C22.1991 18.6435 22.2364 18.6484 22.2641 18.6711C22.4121 18.7955 22.5667 18.9199 22.7226 19.0387C22.7762 19.0793 22.7728 19.1642 22.7143 19.1992C21.9793 19.6384 21.2145 20.0096 20.4108 20.3199C20.3585 20.3402 20.3352 20.4024 20.3605 20.4538C20.8039 21.3317 21.3103 22.1673 21.8675 22.9599C21.8908 22.9934 21.9325 23.0077 21.9711 22.9959C24.3831 22.2333 26.8289 21.0825 29.3536 19.1869C29.3759 19.1705 29.3899 19.1453 29.3923 19.1177C30.0077 12.6087 28.3612 6.95455 25.0275 1.94237C25.0196 1.92559 25.0056 1.91371 24.9892 1.90637Z" fill="white"/>
</svg>
