<svg width="30" height="24" viewBox="0 0 30 24" fill="none" xmlns="http://www.w3.org/2000/svg">
<path fill-rule="evenodd" clip-rule="evenodd" d="M25.7439 3.84057C26.33 3.37106 28.0761 1.85749 27.9673 0.263913L24.3451 1.90795C23.2539 0.753237 21.7717 0 19.9255 0C16.6396 0 14.0308 2.79165 14.0308 5.66404C14.0308 6.18925 14.1837 7.18846 14.2741 7.62545C5.94515 6.83035 1.96888 1.39171 1.96888 1.39171C-0.562965 5.80011 3.74787 9.385 3.74787 9.385C2.51166 10.0018 1.19583 9.47322 0.493062 8.99249C0.107659 13.4626 5.87787 14.5975 5.87787 14.5975C4.70409 15.2423 3.70039 15.4113 2.42568 15.363C2.9266 18.7345 8.66204 18.8264 8.66204 18.8264C5.79712 20.6226 0.97304 20.7049 0 20.4144C2.70418 22.6427 6.18028 24.1813 9.95955 23.9828C19.9868 23.4554 25.6119 15.3526 25.8814 6.88754C25.8814 6.88754 26.8395 6.61316 27.7487 5.77993C28.9437 4.68427 29.0323 2.97033 29.0323 2.97033C27.8956 3.65068 26.7943 3.98973 25.7439 3.84057Z" fill="white"/>
</svg>
